# xmcd
#
# Track frame offsets:
#	150
#	13713
#	27088
#	49320
#	66460
#	87465
#	112400
#	129388
#	145392
#	163533
#	187324
#
# Disc length: 2719 seconds
#
# Revision: 3
# Processed by: cddbd v1.5.2PL0 Copyright (c) Steve Scherf et al.
# Submitted via: audiograbber 1.83.01
#
DISCID=a80a9d0b
DTITLE=Roy Orbison - King Of Hearts
DYEAR=1988
DGENRE=Rock and Roll
TTITLE0=You're The One
TTITLE1=Heartbreak Radio
TTITLE2=We'll Take The Night
TTITLE3=Crying (Duet with k.d. lang)
TTITLE4=After The Love Has Gone
TTITLE5=Love In Time
TTITLE6=I Drove All Night
TTITLE7=Wild Hearts Run Out Of Time
TTITLE8=Coming Home
TTITLE9=Careless Heart (Original Demo)
TTITLE10=Life Fades Away
EXTD=
EXTT0=
EXTT1=
EXTT2=
EXTT3=
EXTT4=
EXTT5=
EXTT6=
EXTT7=
EXTT8=
EXTT9=
EXTT10=
PLAYORDER=
